<?xml version="1.0" standalone="no"?>
<!DOCTYPE svg PUBLIC "-//W3C//DTD SVG 20010904//EN"
 "http://www.w3.org/TR/2001/REC-SVG-20010904/DTD/svg10.dtd">
<svg version="1.0" xmlns="http://www.w3.org/2000/svg"
 width="640.000000pt" height="1280.000000pt" viewBox="0 0 640.000000 1280.000000"
 preserveAspectRatio="xMidYMid meet">
<metadata>
Created by potrace 1.15, written by Peter Selinger 2001-2017
</metadata>
<g transform="translate(0.000000,1280.000000) scale(0.100000,-0.100000)"
fill="#000000" stroke="none">
<path d="M3010 12790 c-160 -13 -463 -61 -505 -79 -22 -10 -47 -27 -57 -37
-19 -22 -58 -132 -58 -166 0 -13 -9 -54 -20 -93 -11 -38 -20 -81 -20 -95 0
-34 26 -70 52 -70 16 0 19 -4 14 -22 -21 -73 -28 -148 -24 -263 4 -135 22
-201 61 -234 23 -18 22 -58 -8 -341 -101 -975 -143 -1623 -155 -2390 -11 -688
-24 -806 -121 -1057 -48 -123 -56 -134 -249 -348 -248 -275 -335 -407 -382
-580 l-22 -80 0 -3115 c-1 -2977 0 -3117 17 -3167 51 -147 242 -335 442 -436
112 -56 359 -128 560 -162 634 -109 1436 -43 1867 153 200 91 391 271 460 432
l23 55 -1 3120 0 3120 -22 80 c-47 173 -134 305 -382 580 -193 214 -201 225
-249 348 -97 252 -110 368 -121 1062 -12 763 -64 1554 -160 2439 -25 222 -25
269 -3 287 41 34 57 98 61 245 4 133 -4 203 -33 277 -5 11 -2 17 8 17 29 0 67
40 67 71 0 36 -92 317 -115 352 -21 33 -90 61 -195 82 -97 19 -567 29 -730 15z"/>
</g>
</svg>
